0
SECTION
2
HEADER
9
$INSUNITS
70
4
9
$ACADVER
1
AC1014
9
$HANDSEED
5
FFFF
0
ENDSEC
0
SECTION
2
TABLES
0
TABLE
2
VPORT
5
8
100
AcDbSymbolTable
0
ENDTAB
0
TABLE
2
LTYPE
5
5
100
AcDbSymbolTable
0
LTYPE
5
14
100
AcDbSymbolTableRecord
100
AcDbLinetypeTableRecord
2
BYBLOCK
70
0
0
LTYPE
5
15
100
AcDbSymbolTableRecord
100
AcDbLinetypeTableRecord
2
BYLAYER
70
0
0
LTYPE
5
16
100
AcDbSymbolTableRecord
100
AcDbLinetypeTableRecord
2
DASHED
70
0
3
Dashed __ __ __ __ __ __ __ __ __ __ __ __ __ _
72
65
73
2
40
0.75
49
0.5
74
0
49
-0.25
74
0
0
ENDTAB
0
TABLE
2
LAYER
5
2
100
AcDbSymbolTable
70
2
0
LAYER
5
50
100
AcDbSymbolTableRecord
100
AcDbLayerTableRecord
2
0
70
0
62
7
6
CONTINUOUS
0
ENDTAB
0
TABLE
2
STYLE
5
3
100
AcDbSymbolTable
70
1
0
STYLE
5
11
100
AcDbSymbolTableRecord
100
AcDbTextStyleTableRecord
2
STANDARD
70
0
0
ENDTAB
0
TABLE
2
VIEW
5
6
100
AcDbSymbolTable
70
0
0
ENDTAB
0
TABLE
2
UCS
5
7
100
AcDbSymbolTable
70
0
0
ENDTAB
0
TABLE
2
APPID
5
9
100
AcDbSymbolTable
70
2
0
APPID
5
12
100
AcDbSymbolTableRecord
100
AcDbRegAppTableRecord
2
ACAD
70
0
0
ENDTAB
0
TABLE
2
DIMSTYLE
5
A
100
AcDbSymbolTable
70
1
0
ENDTAB
0
TABLE
2
BLOCK_RECORD
5
1
100
AcDbSymbolTable
70
1
0
BLOCK_RECORD
5
1F
100
AcDbSymbolTableRecord
100
AcDbBlockTableRecord
2
*MODEL_SPACE
0
BLOCK_RECORD
5
1B
100
AcDbSymbolTableRecord
100
AcDbBlockTableRecord
2
*PAPER_SPACE
0
ENDTAB
0
ENDSEC
0
SECTION
2
BLOCKS
0
BLOCK
5
20
100
AcDbEntity
100
AcDbBlockBegin
2
*MODEL_SPACE
0
ENDBLK
5
21
100
AcDbEntity
100
AcDbBlockEnd
0
BLOCK
5
1C
100
AcDbEntity
100
AcDbBlockBegin
2
*PAPER_SPACE
0
ENDBLK
5
1D
100
AcDbEntity
100
AcDbBlockEnd
0
ENDSEC
0
SECTION
2
ENTITIES
0
POINT
5
100
100
AcDbEntity
8
0
100
AcDbPoint
10
0
20
0
30
0
0
POINT
5
101
100
AcDbEntity
8
0
100
AcDbPoint
10
-27.25
20
-39
30
-2.2204460492503091e-15
0
POINT
5
102
100
AcDbEntity
8
0
100
AcDbPoint
10
27.25
20
-39
30
5.40831924319869e-32
0
POINT
5
103
100
AcDbEntity
8
0
100
AcDbPoint
10
27.249999999999993
20
61
30
5.40831924319869e-32
0
POINT
5
104
100
AcDbEntity
8
0
100
AcDbPoint
10
0
20
0
30
0
0
POINT
5
105
100
AcDbEntity
8
0
100
AcDbPoint
10
-15.25
20
52.999999999999986
30
-2.2204460492503091e-15
0
POINT
5
106
100
AcDbEntity
8
0
100
AcDbPoint
10
3.2453140177404869e-15
20
53
30
-2.2204460492503091e-15
0
POINT
5
107
100
AcDbEntity
8
0
100
AcDbPoint
10
15.250000000000004
20
53.000000000000007
30
-2.2204460492503091e-15
0
POINT
5
108
100
AcDbEntity
8
0
100
AcDbPoint
10
-24.259649459999935
20
19.060999470000045
30
0
0
LINE
5
109
100
AcDbEntity
8
0
100
AcDbLine
10
-25.589649459999908
20
-20.589000530000035
30
0
11
-25.589649459999929
21
20.610999470000046
31
-5.9164567891575885e-30
6
DASHED
0
LINE
5
110
100
AcDbEntity
8
0
100
AcDbLine
10
-20.389649459999898
20
-20.589000530000035
30
0
11
-20.389649459999923
21
20.610999470000046
31
-5.9164567891575885e-30
6
DASHED
0
LINE
5
111
100
AcDbEntity
8
0
100
AcDbLine
10
-20.389649459999923
20
20.610999470000046
30
-5.9164567891575885e-30
11
-25.589649459999929
21
20.610999470000046
31
-5.9164567891575885e-30
6
DASHED
0
CIRCLE
5
112
100
AcDbEntity
8
0
100
AcDbCircle
10
-24.24999999999995
20
36.000000000000071
30
0
40
1.1500000000000024
210
3.2057103924325541e-30
220
4.9303806576314902e-32
230
1
0
CIRCLE
5
113
100
AcDbEntity
8
0
100
AcDbCircle
10
24.250000000000146
20
36.000000000000078
30
0
40
1.1500000000000024
210
3.2057103924325541e-30
220
4.9303806576314902e-32
230
1
0
CIRCLE
5
114
100
AcDbEntity
8
0
100
AcDbCircle
10
-24.249999999999915
20
-36.000000000000078
30
0
40
1.1500000000000024
210
3.2057103924325541e-30
220
4.9303806576314902e-32
230
1
0
CIRCLE
5
115
100
AcDbEntity
8
0
100
AcDbCircle
10
24.250000000000181
20
-36.000000000000071
30
0
40
1.1500000000000024
210
3.2057103924325541e-30
220
4.9303806576314902e-32
230
1
0
LWPOLYLINE
5
116
100
AcDbEntity
8
0
100
AcDbPolyline
90
8
70
1
43
0.0
10
-27.25
20
-37
10
-27.250000000000007
20
58.999999999999972
42
-0.41421356237309048
10
-25.25
20
60.999999999999986
10
25.25
20
61
42
-0.41421356237309048
10
27.249999999999996
20
59.000000000000014
10
27.25
20
-37
42
-0.4142135623730957
10
25.25
20
-39
10
-25.25
20
-39
42
-0.4142135623730957
0
LINE
5
117
100
AcDbEntity
8
0
100
AcDbLine
10
0
20
-39
30
-2.2204460492504125e-15
11
0
21
60.999999999999986
31
6.3108872417680922e-29
6
DASHED
0
LINE
5
118
100
AcDbEntity
8
0
100
AcDbLine
10
-27.25
20
45.999999999999986
30
-2.2204460492503091e-15
11
27.249999999999993
21
46
31
-2.2204460492503091e-15
6
DASHED
0
LINE
5
119
100
AcDbEntity
8
0
100
AcDbLine
10
-27.250000000000007
20
52.999999999999986
30
-2.2204460492503091e-15
11
27.249999999999986
21
53.000000000000007
31
-2.2204460492503091e-15
6
DASHED
0
CIRCLE
5
120
100
AcDbEntity
8
0
100
AcDbCircle
10
-24.25
20
57.999999999999986
30
0
40
1.1500000000000035
210
0
220
0
230
1
0
CIRCLE
5
121
100
AcDbEntity
8
0
100
AcDbCircle
10
24.250000000000011
20
57.999999999999986
30
0
40
1.1500000000000039
210
0
220
0
230
1
0
LINE
5
122
100
AcDbEntity
8
0
100
AcDbLine
10
-20.389649459999898
20
-20.589000530000035
30
-1.6038605316472471e-29
11
-25.589649459999908
21
-20.589000530000035
31
5.9164567891575885e-30
6
DASHED
0
CIRCLE
5
123
100
AcDbEntity
8
0
100
AcDbCircle
10
-24.259649459999935
20
19.060999470000045
30
0
40
0.49999999999999944
210
0
220
0
230
1
0
CIRCLE
5
124
100
AcDbEntity
8
0
100
AcDbCircle
10
-21.719649459999935
20
19.060999470000045
30
0
40
0.49999999999999944
210
0
220
0
230
1
0
CIRCLE
5
125
100
AcDbEntity
8
0
100
AcDbCircle
10
-24.259649459999935
20
16.520999470000046
30
0
40
0.49999999999999944
210
0
220
0
230
1
0
CIRCLE
5
126
100
AcDbEntity
8
0
100
AcDbCircle
10
-21.719649459999935
20
16.520999470000046
30
0
40
0.49999999999999944
210
0
220
0
230
1
0
CIRCLE
5
127
100
AcDbEntity
8
0
100
AcDbCircle
10
-24.259649459999935
20
13.980999470000047
30
0
40
0.49999999999999944
210
0
220
0
230
1
0
CIRCLE
5
128
100
AcDbEntity
8
0
100
AcDbCircle
10
-21.719649459999935
20
13.980999470000047
30
0
40
0.49999999999999944
210
0
220
0
230
1
0
CIRCLE
5
129
100
AcDbEntity
8
0
100
AcDbCircle
10
-24.259649459999935
20
11.440999470000046
30
0
40
0.49999999999999944
210
0
220
0
230
1
0
CIRCLE
5
130
100
AcDbEntity
8
0
100
AcDbCircle
10
-21.719649459999935
20
11.440999470000046
30
0
40
0.49999999999999944
210
0
220
0
230
1
0
CIRCLE
5
131
100
AcDbEntity
8
0
100
AcDbCircle
10
-24.259649459999935
20
8.9009994700000465
30
0
40
0.49999999999999944
210
0
220
0
230
1
0
CIRCLE
5
132
100
AcDbEntity
8
0
100
AcDbCircle
10
-21.719649459999935
20
8.9009994700000465
30
0
40
0.49999999999999944
210
0
220
0
230
1
0
CIRCLE
5
133
100
AcDbEntity
8
0
100
AcDbCircle
10
-24.259649459999935
20
6.3609994700000456
30
0
40
0.49999999999999944
210
0
220
0
230
1
0
CIRCLE
5
134
100
AcDbEntity
8
0
100
AcDbCircle
10
-21.719649459999935
20
6.3609994700000456
30
0
40
0.49999999999999944
210
0
220
0
230
1
0
CIRCLE
5
135
100
AcDbEntity
8
0
100
AcDbCircle
10
-24.259649459999935
20
3.820999470000046
30
0
40
0.49999999999999944
210
0
220
0
230
1
0
CIRCLE
5
136
100
AcDbEntity
8
0
100
AcDbCircle
10
-21.719649459999935
20
3.820999470000046
30
0
40
0.49999999999999944
210
0
220
0
230
1
0
CIRCLE
5
137
100
AcDbEntity
8
0
100
AcDbCircle
10
-24.259649459999935
20
1.280999470000046
30
0
40
0.49999999999999944
210
0
220
0
230
1
0
CIRCLE
5
138
100
AcDbEntity
8
0
100
AcDbCircle
10
-21.719649459999935
20
1.280999470000046
30
0
40
0.49999999999999944
210
0
220
0
230
1
0
CIRCLE
5
139
100
AcDbEntity
8
0
100
AcDbCircle
10
-24.259649459999935
20
-1.259000529999954
30
0
40
0.49999999999999944
210
0
220
0
230
1
0
CIRCLE
5
140
100
AcDbEntity
8
0
100
AcDbCircle
10
-21.719649459999935
20
-1.259000529999954
30
0
40
0.49999999999999944
210
0
220
0
230
1
0
CIRCLE
5
141
100
AcDbEntity
8
0
100
AcDbCircle
10
-24.259649459999935
20
-3.7990005299999541
30
0
40
0.49999999999999944
210
0
220
0
230
1
0
CIRCLE
5
142
100
AcDbEntity
8
0
100
AcDbCircle
10
-21.719649459999935
20
-3.7990005299999541
30
0
40
0.49999999999999944
210
0
220
0
230
1
0
CIRCLE
5
143
100
AcDbEntity
8
0
100
AcDbCircle
10
-24.259649459999935
20
-6.3390005299999537
30
0
40
0.49999999999999944
210
0
220
0
230
1
0
CIRCLE
5
144
100
AcDbEntity
8
0
100
AcDbCircle
10
-21.719649459999935
20
-6.3390005299999537
30
0
40
0.49999999999999944
210
0
220
0
230
1
0
CIRCLE
5
145
100
AcDbEntity
8
0
100
AcDbCircle
10
-24.259649459999935
20
-8.8790005299999546
30
0
40
0.49999999999999944
210
0
220
0
230
1
0
CIRCLE
5
146
100
AcDbEntity
8
0
100
AcDbCircle
10
-21.719649459999935
20
-8.8790005299999546
30
0
40
0.49999999999999944
210
0
220
0
230
1
0
CIRCLE
5
147
100
AcDbEntity
8
0
100
AcDbCircle
10
-24.259649459999935
20
-11.419000529999954
30
0
40
0.49999999999999944
210
0
220
0
230
1
0
CIRCLE
5
148
100
AcDbEntity
8
0
100
AcDbCircle
10
-21.719649459999935
20
-11.419000529999954
30
0
40
0.49999999999999944
210
0
220
0
230
1
0
CIRCLE
5
149
100
AcDbEntity
8
0
100
AcDbCircle
10
-24.259649459999935
20
-13.959000529999955
30
0
40
0.49999999999999944
210
0
220
0
230
1
0
CIRCLE
5
150
100
AcDbEntity
8
0
100
AcDbCircle
10
-21.719649459999935
20
-13.959000529999955
30
0
40
0.49999999999999944
210
0
220
0
230
1
0
CIRCLE
5
151
100
AcDbEntity
8
0
100
AcDbCircle
10
-24.259649459999935
20
-16.499000529999954
30
0
40
0.49999999999999944
210
0
220
0
230
1
0
CIRCLE
5
152
100
AcDbEntity
8
0
100
AcDbCircle
10
-21.719649459999935
20
-16.499000529999954
30
0
40
0.49999999999999944
210
0
220
0
230
1
0
CIRCLE
5
153
100
AcDbEntity
8
0
100
AcDbCircle
10
-24.259649459999935
20
-19.039000529999953
30
0
40
0.49999999999999944
210
0
220
0
230
1
0
CIRCLE
5
154
100
AcDbEntity
8
0
100
AcDbCircle
10
-21.719649459999935
20
-19.039000529999953
30
0
40
0.49999999999999944
210
0
220
0
230
1
0
LINE
5
155
100
AcDbEntity
8
0
100
AcDbLine
10
-24.25
20
57.999999999999986
30
0
11
0
21
57.999999999999986
31
0
6
DASHED
0
LINE
5
156
100
AcDbEntity
8
0
100
AcDbLine
10
24.250000000000011
20
57.999999999999986
30
0
11
0
21
57.999999999999986
31
0
6
DASHED
0
CIRCLE
5
157
100
AcDbEntity
8
0
100
AcDbCircle
10
4
20
57.999999999999986
30
0
40
0.49999999999999989
210
0
220
0
230
1
0
CIRCLE
5
158
100
AcDbEntity
8
0
100
AcDbCircle
10
6.54
20
57.999999999999986
30
0
40
0.49999999999999989
210
0
220
0
230
1
0
CIRCLE
5
159
100
AcDbEntity
8
0
100
AcDbCircle
10
9.0800000000000001
20
57.999999999999986
30
0
40
0.49999999999999989
210
0
220
0
230
1
0
CIRCLE
5
160
100
AcDbEntity
8
0
100
AcDbCircle
10
11.619999999999999
20
57.999999999999986
30
0
40
0.49999999999999989
210
0
220
0
230
1
0
CIRCLE
5
161
100
AcDbEntity
8
0
100
AcDbCircle
10
14.16
20
57.999999999999986
30
0
40
0.49999999999999989
210
0
220
0
230
1
0
CIRCLE
5
162
100
AcDbEntity
8
0
100
AcDbCircle
10
16.699999999999999
20
57.999999999999986
30
0
40
0.49999999999999989
210
0
220
0
230
1
0
LINE
5
163
100
AcDbEntity
8
0
100
AcDbLine
10
-23.459649459999934
20
19.860999470000046
30
0
11
-25.059649459999935
21
19.860999470000046
31
0
6
DASHED
0
LINE
5
164
100
AcDbEntity
8
0
100
AcDbLine
10
-25.059649459999935
20
19.860999470000046
30
0
11
-25.059649459999935
21
18.260999470000044
31
0
6
DASHED
0
LINE
5
165
100
AcDbEntity
8
0
100
AcDbLine
10
-25.059649459999935
20
18.260999470000044
30
0
11
-23.459649459999934
21
18.260999470000044
31
0
6
DASHED
0
LINE
5
166
100
AcDbEntity
8
0
100
AcDbLine
10
-23.459649459999934
20
18.260999470000044
30
0
11
-23.459649459999934
21
19.860999470000046
31
0
6
DASHED
0
LINE
5
167
100
AcDbEntity
8
0
100
AcDbLine
10
-23.459649459999934
20
19.860999470000046
30
0
11
-25.059649459999935
21
18.260999470000044
31
0
6
DASHED
0
LINE
5
168
100
AcDbEntity
8
0
100
AcDbLine
10
-25.059649459999935
20
19.860999470000046
30
0
11
-23.459649459999934
21
18.260999470000044
31
0
6
DASHED
0
LINE
5
169
100
AcDbEntity
8
0
100
AcDbLine
10
-25.006238837522147
20
20.86099948490121
30
2.1592137083805123e-15
11
-25.006238837522147
21
19.860999470000049
31
2.2816783901201135e-15
0
LINE
5
170
100
AcDbEntity
8
0
100
AcDbLine
10
-25.006238837522147
20
19.860999470000049
30
2.2816783901201139e-15
11
-24.629021939617274
21
19.860999470000049
31
2.2816783901201127e-15
0
SPLINE
5
171
100
AcDbEntity
8
0
100
AcDbSpline
70
0
71
2
72
6
73
3
74
0
42
0.000000001
43
0.0000000001
44
0.0000000001
40
0
40
0
40
0
40
1
40
1
40
1
10
-24.629021939617274
20
19.860999470000049
30
2.2816783901201127e-15
10
-24.529431220871089
20
19.860999470000049
30
2.2816783901201123e-15
10
-24.476907309871791
20
19.870549326185962
30
2.2805088700390729e-15
0
SPLINE
5
172
100
AcDbEntity
8
0
100
AcDbSpline
70
0
71
2
72
6
73
3
74
0
42
0.000000001
43
0.0000000001
44
0.0000000001
40
0
40
0
40
0
40
1
40
1
40
1
10
-24.476907309871791
20
19.870549326185962
30
2.2805088700390729e-15
10
-24.403237459045528
20
19.882827584986469
30
2.2790052170051582e-15
10
-24.353442099672435
20
19.917275046353122
30
2.274786619675016e-15
0
SPLINE
5
173
100
AcDbEntity
8
0
100
AcDbSpline
70
0
71
2
72
6
73
3
74
0
42
0.000000001
43
0.0000000001
44
0.0000000001
40
0
40
0
40
0
40
1
40
1
40
1
10
-24.353442099672435
20
19.917275046353122
30
2.274786619675016e-15
10
-24.303646740299342
20
19.951722582225582
30
2.2705680132205433e-15
10
-24.273292031866191
20
20.013796200399181
30
2.2629661874397642e-15
0
SPLINE
5
174
100
AcDbEntity
8
0
100
AcDbSpline
70
0
71
2
72
6
73
3
74
0
42
0.000000001
43
0.0000000001
44
0.0000000001
40
0
40
0
40
0
40
1
40
1
40
1
10
-24.273292031866191
20
20.013796200399181
30
2.2629661874397642e-15
10
-24.24293732343304
20
20.075869893078586
30
2.2553643525346551e-15
10
-24.24293732343304
20
20.150221844558498
30
2.246258864595632e-15
0
SPLINE
5
175
100
AcDbEntity
8
0
100
AcDbSpline
70
0
71
2
72
6
73
3
74
0
42
0.000000001
43
0.0000000001
44
0.0000000001
40
0
40
0
40
0
40
1
40
1
40
1
10
-24.24293732343304
20
20.150221844558498
30
2.246258864595632e-15
10
-24.24293732343304
20
20.277779807691356
30
2.2306375194699907e-15
10
-24.324110653978465
20
20.36611545587041
30
2.2198195225906823e-15
0
SPLINE
5
176
100
AcDbEntity
8
0
100
AcDbSpline
70
0
71
2
72
6
73
3
74
0
42
0.000000001
43
0.0000000001
44
0.0000000001
40
0
40
0
40
0
40
1
40
1
40
1
10
-24.324110653978465
20
20.36611545587041
30
2.2198195225906823e-15
10
-24.405283835512279
20
20.454451104049465
30
2.2090015257113738e-15
10
-24.617425744217513
20
20.454451104049465
30
2.2090015257113742e-15
0
LINE
5
177
100
AcDbEntity
8
0
100
AcDbLine
10
-24.617425744217513
20
20.454451104049465
30
2.2090015257113742e-15
11
-24.873905964922784
21
20.454451104049465
31
2.209001525711375e-15
0
LINE
5
178
100
AcDbEntity
8
0
100
AcDbLine
10
-24.873905964922784
20
20.454451104049465
30
2.209001525711375e-15
11
-24.873905964922784
21
20.86099948490121
31
2.1592137083805119e-15
0
LINE
5
179
100
AcDbEntity
8
0
100
AcDbLine
10
-24.873905964922784
20
20.86099948490121
30
2.1592137083805119e-15
11
-25.006238837522147
21
20.86099948490121
31
2.1592137083805123e-15
0
LINE
5
180
100
AcDbEntity
8
0
100
AcDbLine
10
-24.873905964922784
20
20.336442848090908
30
2.2234533690046359e-15
11
-24.615379367750762
21
20.336442848090908
31
2.2234533690046355e-15
0
SPLINE
5
181
100
AcDbEntity
8
0
100
AcDbSpline
70
0
71
2
72
6
73
3
74
0
42
0.000000001
43
0.0000000001
44
0.0000000001
40
0
40
0
40
0
40
1
40
1
40
1
10
-24.615379367750762
20
20.336442848090908
30
2.2234533690046351e-15
10
-24.487139266711353
20
20.336442848090908
30
2.2234533690046351e-15
10
-24.433251079898952
20
20.288693865184566
30
2.2293009329125139e-15
0
SPLINE
5
182
100
AcDbEntity
8
0
100
AcDbSpline
70
0
71
2
72
6
73
3
74
0
42
0.000000001
43
0.0000000001
44
0.0000000001
40
0
40
0
40
0
40
1
40
1
40
1
10
-24.433251079898952
20
20.288693865184566
30
2.2293009329125139e-15
10
-24.379362967592357
20
20.240944882278225
30
2.2351484968203931e-15
10
-24.379362967592357
20
20.154314671997806
30
2.2457576377933305e-15
0
SPLINE
5
183
100
AcDbEntity
8
0
100
AcDbSpline
70
0
71
2
72
6
73
3
74
0
42
0.000000001
43
0.0000000001
44
0.0000000001
40
0
40
0
40
0
40
1
40
1
40
1
10
-24.379362967592357
20
20.154314671997806
30
2.2457576377933305e-15
10
-24.379362967592357
20
20.091558878664753
30
2.2534430059366584e-15
10
-24.411081951838611
20
20.046879460458538
30
2.2589146565860591e-15
0
SPLINE
5
184
100
AcDbEntity
8
0
100
AcDbSpline
70
0
71
2
72
6
73
3
74
0
42
0.000000001
43
0.0000000001
44
0.0000000001
40
0
40
0
40
0
40
1
40
1
40
1
10
-24.411081951838611
20
20.046879460458538
30
2.2589146565860591e-15
10
-24.442800936084865
20
20.002200042252323
30
2.2643863072354602e-15
10
-24.494642671924709
20
19.987875332479259
30
2.2661405782326897e-15
0
SPLINE
5
185
100
AcDbEntity
8
0
100
AcDbSpline
70
0
71
2
72
6
73
3
74
0
42
0.000000001
43
0.0000000001
44
0.0000000001
40
0
40
0
40
0
40
1
40
1
40
1
10
-24.494642671924709
20
19.987875332479259
30
2.2661405782326897e-15
10
-24.528066945057986
20
19.9790076514528
30
2.2672265559511811e-15
10
-24.618107882124065
20
19.9790076514528
30
2.2672265559511811e-15
0
LINE
5
186
100
AcDbEntity
8
0
100
AcDbLine
10
-24.618107882124065
20
19.9790076514528
30
2.2672265559511811e-15
11
-24.873905964922784
21
19.9790076514528
31
2.2672265559511818e-15
0
LINE
5
187
100
AcDbEntity
8
0
100
AcDbLine
10
-24.873905964922784
20
19.9790076514528
30
2.2672265559511822e-15
11
-24.873905964922784
21
20.336442848090908
31
2.2234533690046359e-15
0
LINE
5
188
100
AcDbEntity
8
0
100
AcDbLine
10
-23.66176405994284
20
20.86099948490121
30
2.1592137083805088e-15
11
-23.784547132235645
21
20.86099948490121
31
2.1592137083805091e-15
0
LINE
5
189
100
AcDbEntity
8
0
100
AcDbLine
10
-23.784547132235645
20
20.86099948490121
30
2.1592137083805091e-15
11
-23.784547132235645
21
20.078598370198986
31
2.2550302104574488e-15
0
SPLINE
5
190
100
AcDbEntity
8
0
100
AcDbSpline
70
0
71
2
72
6
73
3
74
0
42
0.000000001
43
0.0000000001
44
0.0000000001
40
0
40
0
40
0
40
1
40
1
40
1
10
-23.784547132235645
20
20.078598370198986
30
2.2550302104574492e-15
10
-23.828885462862132
20
20.120890324358722
30
2.2498509398283083e-15
10
-23.900850024801372
20
20.163182278518459
30
2.2446716691991681e-15
0
SPLINE
5
191
100
AcDbEntity
8
0
100
AcDbSpline
70
0
71
2
72
6
73
3
74
0
42
0.000000001
43
0.0000000001
44
0.0000000001
40
0
40
0
40
0
40
1
40
1
40
1
10
-23.900850024801372
20
20.163182278518459
30
2.2446716691991681e-15
10
-23.972814549487708
20
20.205474232678196
30
2.2394923985700275e-15
10
-24.030113314074157
20
20.226620247010967
30
2.2369027586932922e-15
0
LINE
5
192
100
AcDbEntity
8
0
100
AcDbLine
10
-24.030113314074157
20
20.226620247010967
30
2.2369027586932922e-15
11
-24.030113314074157
21
20.107929890398761
31
2.2514381352247714e-15
0
SPLINE
5
193
100
AcDbEntity
8
0
100
AcDbSpline
70
0
71
2
72
6
73
3
74
0
42
0.000000001
43
0.0000000001
44
0.0000000001
40
0
40
0
40
0
40
1
40
1
40
1
10
-24.030113314074157
20
20.107929890398761
30
2.2514381352247718e-15
10
-23.927111943048118
20
20.059498806838771
30
2.2573692323708694e-15
10
-23.850031477194904
20
19.990603884105465
30
2.2658064270311542e-15
0
SPLINE
5
194
100
AcDbEntity
8
0
100
AcDbSpline
70
0
71
2
72
6
73
3
74
0
42
0.000000001
43
0.0000000001
44
0.0000000001
40
0
40
0
40
0
40
1
40
1
40
1
10
-23.850031477194904
20
19.990603884105465
30
2.2658064270311542e-15
10
-23.772950974088786
20
19.921708886866352
30
2.2742436308157687e-15
10
-23.740890939515708
20
19.856906717066547
30
2.2821796077980821e-15
0
LINE
5
195
100
AcDbEntity
8
0
100
AcDbLine
10
-23.740890939515708
20
19.856906717066547
30
2.2821796077980821e-15
11
-23.66176405994284
21
19.856906717066547
31
2.2821796077980821e-15
0
LINE
5
196
100
AcDbEntity
8
0
100
AcDbLine
10
-23.66176405994284
20
19.856906717066547
30
2.2821796077980814e-15
11
-23.66176405994284
21
20.86099948490121
31
2.1592137083805088e-15
0
ENDSEC
0
SECTION
2
OBJECTS
0
DICTIONARY
5
C
100
AcDbDictionary
3
ACAD_GROUP
350
D
3
ACAD_MLINESTYLE
350
17
0
DICTIONARY
5
D
100
AcDbDictionary
0
DICTIONARY
5
1A
330
C
100
AcDbDictionary
0
DICTIONARY
5
17
100
AcDbDictionary
0
ENDSEC
0
EOF
