0
SECTION
2
HEADER
9
$INSUNITS
70
4
9
$ACADVER
1
AC1014
9
$HANDSEED
5
FFFF
0
ENDSEC
0
SECTION
2
TABLES
0
TABLE
2
VPORT
5
8
100
AcDbSymbolTable
0
ENDTAB
0
TABLE
2
LTYPE
5
5
100
AcDbSymbolTable
0
LTYPE
5
14
100
AcDbSymbolTableRecord
100
AcDbLinetypeTableRecord
2
BYBLOCK
70
0
0
LTYPE
5
15
100
AcDbSymbolTableRecord
100
AcDbLinetypeTableRecord
2
BYLAYER
70
0
0
LTYPE
5
16
100
AcDbSymbolTableRecord
100
AcDbLinetypeTableRecord
2
DASHED
70
0
3
Dashed __ __ __ __ __ __ __ __ __ __ __ __ __ _
72
65
73
2
40
0.75
49
0.5
74
0
49
-0.25
74
0
0
ENDTAB
0
TABLE
2
LAYER
5
2
100
AcDbSymbolTable
70
2
0
LAYER
5
50
100
AcDbSymbolTableRecord
100
AcDbLayerTableRecord
2
0
70
0
62
7
6
CONTINUOUS
0
ENDTAB
0
TABLE
2
STYLE
5
3
100
AcDbSymbolTable
70
1
0
STYLE
5
11
100
AcDbSymbolTableRecord
100
AcDbTextStyleTableRecord
2
STANDARD
70
0
0
ENDTAB
0
TABLE
2
VIEW
5
6
100
AcDbSymbolTable
70
0
0
ENDTAB
0
TABLE
2
UCS
5
7
100
AcDbSymbolTable
70
0
0
ENDTAB
0
TABLE
2
APPID
5
9
100
AcDbSymbolTable
70
2
0
APPID
5
12
100
AcDbSymbolTableRecord
100
AcDbRegAppTableRecord
2
ACAD
70
0
0
ENDTAB
0
TABLE
2
DIMSTYLE
5
A
100
AcDbSymbolTable
70
1
0
ENDTAB
0
TABLE
2
BLOCK_RECORD
5
1
100
AcDbSymbolTable
70
1
0
BLOCK_RECORD
5
1F
100
AcDbSymbolTableRecord
100
AcDbBlockTableRecord
2
*MODEL_SPACE
0
BLOCK_RECORD
5
1B
100
AcDbSymbolTableRecord
100
AcDbBlockTableRecord
2
*PAPER_SPACE
0
ENDTAB
0
ENDSEC
0
SECTION
2
BLOCKS
0
BLOCK
5
20
100
AcDbEntity
100
AcDbBlockBegin
2
*MODEL_SPACE
0
ENDBLK
5
21
100
AcDbEntity
100
AcDbBlockEnd
0
BLOCK
5
1C
100
AcDbEntity
100
AcDbBlockBegin
2
*PAPER_SPACE
0
ENDBLK
5
1D
100
AcDbEntity
100
AcDbBlockEnd
0
ENDSEC
0
SECTION
2
ENTITIES
0
CIRCLE
5
100
100
AcDbEntity
8
0
100
AcDbCircle
10
-92
20
-7.0000000000000036
30
0
40
1.1500000000000021
210
0
220
-0
230
1
0
CIRCLE
5
101
100
AcDbEntity
8
0
100
AcDbCircle
10
-92
20
-21.000000000000007
30
0
40
1.1500000000000021
210
0
220
-0
230
1
0
CIRCLE
5
102
100
AcDbEntity
8
0
100
AcDbCircle
10
-92
20
-35.000000000000007
30
0
40
1.1500000000000021
210
0
220
-0
230
1
0
LWPOLYLINE
5
103
100
AcDbEntity
8
0
100
AcDbPolyline
90
8
70
1
43
0.0
10
-152
20
0
42
0.41421356237309531
10
-162
20
-10.000000000000002
10
-162
20
-46.000000000000014
42
0.41421356237309553
10
-152
20
-56.000000000000028
10
-0.99999999999999645
20
-56.000000000000014
42
0.41421356237309515
10
2.7755575615628914e-16
20
-55.000000000000014
10
0
20
-0.99999999999999645
42
0.41421356237309387
10
-0.99999999999999656
20
0
0
CIRCLE
5
104
100
AcDbEntity
8
0
100
AcDbCircle
10
-92
20
-29.270000000000003
30
0
40
0.50000000000000711
210
0
220
-0
230
1
0
LWPOLYLINE
5
105
100
AcDbEntity
8
0
100
AcDbPolyline
90
4
70
1
43
0.0
10
-92
20
-52.500000000000014
10
-100
20
-52.500000000000014
42
-0.99999999999999989
10
-100
20
-47.500000000000014
10
-92
20
-47.500000000000014
42
-0.99999999999999989
0
CIRCLE
5
106
100
AcDbEntity
8
0
100
AcDbCircle
10
-92
20
-26.730000000000011
30
0
40
0.50000000000000711
210
0
220
-0
230
1
0
CIRCLE
5
107
100
AcDbEntity
8
0
100
AcDbCircle
10
-92
20
-40.730000000000011
30
0
40
0.50000000000000711
210
0
220
-0
230
1
0
CIRCLE
5
108
100
AcDbEntity
8
0
100
AcDbCircle
10
-92
20
-12.730000000000004
30
0
40
0.50000000000000711
210
0
220
-0
230
1
0
CIRCLE
5
109
100
AcDbEntity
8
0
100
AcDbCircle
10
-92
20
-15.269999999999994
30
0
40
0.50000000000000711
210
0
220
-0
230
1
0
CIRCLE
5
110
100
AcDbEntity
8
0
100
AcDbCircle
10
-92
20
-43.27000000000001
30
0
40
0.50000000000000711
210
0
220
-0
230
1
0
CIRCLE
5
111
100
AcDbEntity
8
0
100
AcDbCircle
10
-17.249999999999993
20
-19.10860000000002
30
0
40
0.499999999999996
210
0
220
-0
230
1
0
CIRCLE
5
112
100
AcDbEntity
8
0
100
AcDbCircle
10
-35.029999999999987
20
-3.8686000000000238
30
0
40
0.49999999999999822
210
0
220
-0
230
1
0
CIRCLE
5
113
100
AcDbEntity
8
0
100
AcDbCircle
10
-35.029999999999987
20
-39.428600000000024
30
0
40
0.49999999999999822
210
0
220
-0
230
1
0
CIRCLE
5
114
100
AcDbEntity
8
0
100
AcDbCircle
10
-17.249999999999993
20
-24.188600000000019
30
0
40
0.499999999999996
210
0
220
-0
230
1
0
CIRCLE
5
115
100
AcDbEntity
8
0
100
AcDbCircle
10
-35.029999999999987
20
-8.9486000000000328
30
0
40
0.49999999999999822
210
0
220
-0
230
1
0
CIRCLE
5
116
100
AcDbEntity
8
0
100
AcDbCircle
10
-17.249999999999993
20
-26.728600000000018
30
0
40
0.499999999999996
210
0
220
-0
230
1
0
CIRCLE
5
117
100
AcDbEntity
8
0
100
AcDbCircle
10
-17.249999999999993
20
-6.4086000000000185
30
0
40
0.499999999999996
210
0
220
-0
230
1
0
CIRCLE
5
118
100
AcDbEntity
8
0
100
AcDbCircle
10
-17.249999999999993
20
-39.428600000000017
30
0
40
0.499999999999996
210
0
220
-0
230
1
0
CIRCLE
5
119
100
AcDbEntity
8
0
100
AcDbCircle
10
-17.249999999999993
20
-44.508600000000023
30
0
40
0.499999999999996
210
0
220
-0
230
1
0
CIRCLE
5
120
100
AcDbEntity
8
0
100
AcDbCircle
10
-35.029999999999987
20
-52.128600000000027
30
0
40
0.49999999999999822
210
0
220
-0
230
1
0
CIRCLE
5
121
100
AcDbEntity
8
0
100
AcDbCircle
10
-35.029999999999987
20
-26.728600000000029
30
0
40
0.49999999999999822
210
0
220
-0
230
1
0
CIRCLE
5
122
100
AcDbEntity
8
0
100
AcDbCircle
10
-17.249999999999993
20
-41.968600000000016
30
0
40
0.499999999999996
210
0
220
-0
230
1
0
CIRCLE
5
123
100
AcDbEntity
8
0
100
AcDbCircle
10
-17.249999999999993
20
-3.8686000000000149
30
0
40
0.499999999999996
210
0
220
-0
230
1
0
CIRCLE
5
124
100
AcDbEntity
8
0
100
AcDbCircle
10
-17.249999999999993
20
-29.268600000000017
30
0
40
0.499999999999996
210
0
220
-0
230
1
0
CIRCLE
5
125
100
AcDbEntity
8
0
100
AcDbCircle
10
-35.029999999999987
20
-36.888600000000025
30
0
40
0.49999999999999822
210
0
220
-0
230
1
0
CIRCLE
5
126
100
AcDbEntity
8
0
100
AcDbCircle
10
-35.029999999999987
20
-47.048600000000029
30
0
40
0.49999999999999822
210
0
220
-0
230
1
0
CIRCLE
5
127
100
AcDbEntity
8
0
100
AcDbCircle
10
-17.249999999999993
20
-52.12860000000002
30
0
40
0.499999999999996
210
0
220
-0
230
1
0
CIRCLE
5
128
100
AcDbEntity
8
0
100
AcDbCircle
10
-35.029999999999987
20
-16.568600000000028
30
0
40
0.49999999999999822
210
0
220
-0
230
1
0
CIRCLE
5
129
100
AcDbEntity
8
0
100
AcDbCircle
10
-35.029999999999987
20
-49.588600000000021
30
0
40
0.49999999999999822
210
0
220
-0
230
1
0
CIRCLE
5
130
100
AcDbEntity
8
0
100
AcDbCircle
10
-35.029999999999987
20
-29.268600000000028
30
0
40
0.49999999999999822
210
0
220
-0
230
1
0
CIRCLE
5
131
100
AcDbEntity
8
0
100
AcDbCircle
10
-17.249999999999993
20
-21.648600000000016
30
0
40
0.499999999999996
210
0
220
-0
230
1
0
CIRCLE
5
132
100
AcDbEntity
8
0
100
AcDbCircle
10
-35.029999999999987
20
-34.348600000000026
30
0
40
0.49999999999999822
210
0
220
-0
230
1
0
CIRCLE
5
133
100
AcDbEntity
8
0
100
AcDbCircle
10
-35.029999999999987
20
-6.4086000000000274
30
0
40
0.49999999999999822
210
0
220
-0
230
1
0
CIRCLE
5
134
100
AcDbEntity
8
0
100
AcDbCircle
10
-35.029999999999987
20
-21.648600000000027
30
0
40
0.49999999999999822
210
0
220
-0
230
1
0
CIRCLE
5
135
100
AcDbEntity
8
0
100
AcDbCircle
10
-35.029999999999987
20
-11.488600000000028
30
0
40
0.49999999999999822
210
0
220
-0
230
1
0
CIRCLE
5
136
100
AcDbEntity
8
0
100
AcDbCircle
10
-17.249999999999993
20
-14.02860000000002
30
0
40
0.499999999999996
210
0
220
-0
230
1
0
CIRCLE
5
137
100
AcDbEntity
8
0
100
AcDbCircle
10
-17.249999999999993
20
-36.888600000000018
30
0
40
0.499999999999996
210
0
220
-0
230
1
0
CIRCLE
5
138
100
AcDbEntity
8
0
100
AcDbCircle
10
-17.249999999999993
20
-31.80860000000002
30
0
40
0.499999999999996
210
0
220
-0
230
1
0
CIRCLE
5
139
100
AcDbEntity
8
0
100
AcDbCircle
10
-17.249999999999993
20
-47.048600000000022
30
0
40
0.499999999999996
210
0
220
-0
230
1
0
CIRCLE
5
140
100
AcDbEntity
8
0
100
AcDbCircle
10
-35.029999999999987
20
-24.188600000000026
30
0
40
0.49999999999999822
210
0
220
-0
230
1
0
CIRCLE
5
141
100
AcDbEntity
8
0
100
AcDbCircle
10
-17.249999999999993
20
-8.9486000000000239
30
0
40
0.499999999999996
210
0
220
-0
230
1
0
CIRCLE
5
142
100
AcDbEntity
8
0
100
AcDbCircle
10
-17.249999999999993
20
-11.488600000000019
30
0
40
0.499999999999996
210
0
220
-0
230
1
0
CIRCLE
5
143
100
AcDbEntity
8
0
100
AcDbCircle
10
-17.249999999999993
20
-34.348600000000019
30
0
40
0.499999999999996
210
0
220
-0
230
1
0
CIRCLE
5
144
100
AcDbEntity
8
0
100
AcDbCircle
10
-17.249999999999993
20
-49.588600000000014
30
0
40
0.499999999999996
210
0
220
-0
230
1
0
CIRCLE
5
145
100
AcDbEntity
8
0
100
AcDbCircle
10
-35.029999999999987
20
-19.108600000000028
30
0
40
0.49999999999999822
210
0
220
-0
230
1
0
CIRCLE
5
146
100
AcDbEntity
8
0
100
AcDbCircle
10
-35.029999999999987
20
-44.50860000000003
30
0
40
0.49999999999999822
210
0
220
-0
230
1
0
CIRCLE
5
147
100
AcDbEntity
8
0
100
AcDbCircle
10
-35.029999999999987
20
-41.968600000000023
30
0
40
0.49999999999999822
210
0
220
-0
230
1
0
CIRCLE
5
148
100
AcDbEntity
8
0
100
AcDbCircle
10
-35.029999999999987
20
-31.808600000000027
30
0
40
0.49999999999999822
210
0
220
-0
230
1
0
CIRCLE
5
149
100
AcDbEntity
8
0
100
AcDbCircle
10
-35.029999999999987
20
-14.028600000000029
30
0
40
0.49999999999999822
210
0
220
-0
230
1
0
CIRCLE
5
150
100
AcDbEntity
8
0
100
AcDbCircle
10
-17.249999999999993
20
-16.568600000000021
30
0
40
0.499999999999996
210
0
220
-0
230
1
0
CIRCLE
5
151
100
AcDbEntity
8
0
100
AcDbCircle
10
-4.8000000000000016
20
-5.2200000000000024
30
0
40
1.6500000000000021
210
0
220
-0
230
1
0
CIRCLE
5
152
100
AcDbEntity
8
0
100
AcDbCircle
10
-4.7999999999999998
20
-50.780000000000001
30
0
40
1.6500000000000024
210
0
220
-0
230
1
0
CIRCLE
5
153
100
AcDbEntity
8
0
100
AcDbCircle
10
-78.639999999999986
20
-50.780000000000001
30
0
40
1.6499999999999915
210
0
220
-0
230
1
0
CIRCLE
5
154
100
AcDbEntity
8
0
100
AcDbCircle
10
-78.639999999999986
20
-5.2200000000000113
30
0
40
1.6499999999999915
210
0
220
-0
230
1
0
CIRCLE
5
155
100
AcDbEntity
8
0
100
AcDbCircle
10
-144.71023622047221
20
-6.0088678049583706
30
0
40
1.7500000000000071
210
0
220
-0
230
1
0
CIRCLE
5
156
100
AcDbEntity
8
0
100
AcDbCircle
10
-106.59999999999998
20
-28.000000000000004
30
0
40
1.7500000000000071
210
0
220
-0
230
1
0
CIRCLE
5
157
100
AcDbEntity
8
0
100
AcDbCircle
10
-144.71023622047215
20
-49.991132195041665
30
0
40
1.7500000000000071
210
0
220
-0
230
1
0
CIRCLE
5
158
100
AcDbEntity
8
0
100
AcDbCircle
10
-132
20
-28.000000000000004
30
0
40
21.500000000000004
210
0
220
-0
230
1
0
CIRCLE
5
159
100
AcDbEntity
8
0
100
AcDbCircle
10
-49.759205601898408
20
-28.979082258997821
30
0
40
0.49999999999999822
210
0
220
-0
230
1
0
CIRCLE
5
160
100
AcDbEntity
8
0
100
AcDbCircle
10
-49.759205601897598
20
-18.768915291997534
30
0
40
0.49999999999999822
210
0
220
-0
230
1
0
CIRCLE
5
161
100
AcDbEntity
8
0
100
AcDbCircle
10
-49.759205601897705
20
-8.5587483259984118
30
0
40
0.49999999999999822
210
0
220
-0
230
1
0
CIRCLE
5
162
100
AcDbEntity
8
0
100
AcDbCircle
10
-50.010664679897658
20
-11.117422368998193
30
0
40
0.49999999999999822
210
0
220
-0
230
1
0
CIRCLE
5
163
100
AcDbEntity
8
0
100
AcDbCircle
10
-50.010664679897552
20
-21.327589335997313
30
0
40
0.49999999999999822
210
0
220
-0
230
1
0
CIRCLE
5
164
100
AcDbEntity
8
0
100
AcDbCircle
10
-50.010664679897687
20
-26.432672818996625
30
0
40
0.49999999999999822
210
0
220
-0
230
1
0
CIRCLE
5
165
100
AcDbEntity
8
0
100
AcDbCircle
10
-50.010664679897602
20
-16.222505852997756
30
0
40
0.49999999999999822
210
0
220
-0
230
1
0
CIRCLE
5
166
100
AcDbEntity
8
0
100
AcDbCircle
10
-50.010664679897722
20
-6.0123388859986271
30
0
40
0.49999999999999822
210
0
220
-0
230
1
0
CIRCLE
5
167
100
AcDbEntity
8
0
100
AcDbCircle
10
-49.759205601897648
20
-13.663831808997973
30
0
40
0.49999999999999822
210
0
220
-0
230
1
0
CIRCLE
5
168
100
AcDbEntity
8
0
100
AcDbCircle
10
-49.759205601897534
20
-23.873998775997094
30
0
40
0.49999999999999822
210
0
220
-0
230
1
0
CIRCLE
5
169
100
AcDbEntity
8
0
100
AcDbCircle
10
-2
20
-54.000000000000014
30
0
40
1.1499999999999999
210
0
220
-0
230
1
0
CIRCLE
5
170
100
AcDbEntity
8
0
100
AcDbCircle
10
-2
20
-2
30
0
40
1.1499999999999999
210
0
220
-0
230
1
0
CIRCLE
5
171
100
AcDbEntity
8
0
100
AcDbCircle
10
-157
20
-5
30
0
40
1.1500000000000021
210
0
220
-0
230
1
0
CIRCLE
5
172
100
AcDbEntity
8
0
100
AcDbCircle
10
-157
20
-51.000000000000014
30
0
40
1.1500000000000021
210
0
220
-0
230
1
0
CIRCLE
5
173
100
AcDbEntity
8
0
100
AcDbCircle
10
-68.841961902897111
20
-2.4999999999988987
30
0
40
1.1500000000000021
210
0
220
-0
230
1
0
CIRCLE
5
174
100
AcDbEntity
8
0
100
AcDbCircle
10
-50.841961902897729
20
-2.4999999999989342
30
0
40
1.1500000000000021
210
0
220
-0
230
1
0
CIRCLE
5
175
100
AcDbEntity
8
0
100
AcDbCircle
10
-50.841961902897395
20
-32.499999999996348
30
0
40
1.1500000000000021
210
0
220
-0
230
1
0
ENDSEC
0
SECTION
2
OBJECTS
0
DICTIONARY
5
C
100
AcDbDictionary
3
ACAD_GROUP
350
D
3
ACAD_MLINESTYLE
350
17
0
DICTIONARY
5
D
100
AcDbDictionary
0
DICTIONARY
5
1A
330
C
100
AcDbDictionary
0
DICTIONARY
5
17
100
AcDbDictionary
0
ENDSEC
0
EOF
