0
SECTION
2
HEADER
9
$INSUNITS
70
4
9
$ACADVER
1
AC1014
9
$HANDSEED
5
FFFF
0
ENDSEC
0
SECTION
2
TABLES
0
TABLE
2
VPORT
5
8
100
AcDbSymbolTable
0
ENDTAB
0
TABLE
2
LTYPE
5
5
100
AcDbSymbolTable
0
LTYPE
5
14
100
AcDbSymbolTableRecord
100
AcDbLinetypeTableRecord
2
BYBLOCK
70
0
0
LTYPE
5
15
100
AcDbSymbolTableRecord
100
AcDbLinetypeTableRecord
2
BYLAYER
70
0
0
LTYPE
5
16
100
AcDbSymbolTableRecord
100
AcDbLinetypeTableRecord
2
DASHED
70
0
3
Dashed __ __ __ __ __ __ __ __ __ __ __ __ __ _
72
65
73
2
40
0.75
49
0.5
74
0
49
-0.25
74
0
0
ENDTAB
0
TABLE
2
LAYER
5
2
100
AcDbSymbolTable
70
2
0
LAYER
5
50
100
AcDbSymbolTableRecord
100
AcDbLayerTableRecord
2
0
70
0
62
7
6
CONTINUOUS
0
ENDTAB
0
TABLE
2
STYLE
5
3
100
AcDbSymbolTable
70
1
0
STYLE
5
11
100
AcDbSymbolTableRecord
100
AcDbTextStyleTableRecord
2
STANDARD
70
0
0
ENDTAB
0
TABLE
2
VIEW
5
6
100
AcDbSymbolTable
70
0
0
ENDTAB
0
TABLE
2
UCS
5
7
100
AcDbSymbolTable
70
0
0
ENDTAB
0
TABLE
2
APPID
5
9
100
AcDbSymbolTable
70
2
0
APPID
5
12
100
AcDbSymbolTableRecord
100
AcDbRegAppTableRecord
2
ACAD
70
0
0
ENDTAB
0
TABLE
2
DIMSTYLE
5
A
100
AcDbSymbolTable
70
1
0
ENDTAB
0
TABLE
2
BLOCK_RECORD
5
1
100
AcDbSymbolTable
70
1
0
BLOCK_RECORD
5
1F
100
AcDbSymbolTableRecord
100
AcDbBlockTableRecord
2
*MODEL_SPACE
0
BLOCK_RECORD
5
1B
100
AcDbSymbolTableRecord
100
AcDbBlockTableRecord
2
*PAPER_SPACE
0
ENDTAB
0
ENDSEC
0
SECTION
2
BLOCKS
0
BLOCK
5
20
100
AcDbEntity
100
AcDbBlockBegin
2
*MODEL_SPACE
0
ENDBLK
5
21
100
AcDbEntity
100
AcDbBlockEnd
0
BLOCK
5
1C
100
AcDbEntity
100
AcDbBlockBegin
2
*PAPER_SPACE
0
ENDBLK
5
1D
100
AcDbEntity
100
AcDbBlockEnd
0
ENDSEC
0
SECTION
2
ENTITIES
0
POINT
5
100
100
AcDbEntity
8
0
100
AcDbPoint
10
0
20
0
30
0
0
POINT
5
101
100
AcDbEntity
8
0
100
AcDbPoint
10
-27.25
20
-39
30
-2.2204460492503091e-15
0
POINT
5
102
100
AcDbEntity
8
0
100
AcDbPoint
10
27.25
20
-39
30
5.40831924319869e-32
0
POINT
5
103
100
AcDbEntity
8
0
100
AcDbPoint
10
27.249999999999993
20
61
30
5.40831924319869e-32
0
POINT
5
104
100
AcDbEntity
8
0
100
AcDbPoint
10
0
20
0
30
0
0
POINT
5
105
100
AcDbEntity
8
0
100
AcDbPoint
10
-13.625
20
53.499999999999986
30
-2.2204460492503091e-15
0
POINT
5
106
100
AcDbEntity
8
0
100
AcDbPoint
10
-4.4408920985006262e-15
20
53.5
30
-2.2204460492503091e-15
0
POINT
5
107
100
AcDbEntity
8
0
100
AcDbPoint
10
13.624999999999998
20
53.5
30
-2.2204460492503091e-15
0
LINE
5
108
100
AcDbEntity
8
0
100
AcDbLine
10
-25.589649459999908
20
-20.589000530000035
30
5.9164567891575885e-30
11
-20.389649459999898
21
-20.589000530000035
31
-1.6038605316472471e-29
0
LWPOLYLINE
5
109
100
AcDbEntity
8
0
100
AcDbPolyline
90
4
70
1
43
0.0
10
-25.059649459999925
20
19.860999470000046
10
-23.459649459999422
20
19.860999470000046
10
-23.459649459999625
20
18.260999470000044
10
-25.059649459999925
20
18.260999470000041
0
LINE
5
110
100
AcDbEntity
8
0
100
AcDbLine
10
-25.589649459999908
20
-20.589000530000035
30
0
11
-25.589649459999929
21
20.610999470000046
31
-5.9164567891575885e-30
6
DASHED
0
LINE
5
111
100
AcDbEntity
8
0
100
AcDbLine
10
-20.389649459999898
20
-20.589000530000035
30
0
11
-20.389649459999923
21
20.610999470000046
31
-5.9164567891575885e-30
6
DASHED
0
LINE
5
112
100
AcDbEntity
8
0
100
AcDbLine
10
-20.389649459999923
20
20.610999470000046
30
-5.9164567891575885e-30
11
-25.589649459999929
21
20.610999470000046
31
-5.9164567891575885e-30
6
DASHED
0
LWPOLYLINE
5
113
100
AcDbEntity
8
0
100
AcDbPolyline
90
4
70
1
43
0.0
10
-23.459649459999625
20
18.260999470000041
10
-23.459649459999422
20
19.860999470000046
10
-25.059649459999925
20
19.860999470000046
10
-25.059649459999925
20
18.260999470000041
0
CIRCLE
5
114
100
AcDbEntity
8
0
100
AcDbCircle
10
-24.259649459999935
20
16.520999470000042
30
0
40
0.40000000000000091
210
3.2057103924325541e-30
220
9.860761315262814e-32
230
1
0
CIRCLE
5
115
100
AcDbEntity
8
0
100
AcDbCircle
10
-24.259649459999935
20
13.980999470000038
30
0
40
0.40000000000000091
210
3.2057103924325541e-30
220
9.860761315262814e-32
230
1
0
CIRCLE
5
116
100
AcDbEntity
8
0
100
AcDbCircle
10
-24.259649459999931
20
11.440999470000028
30
2.2204460492503131e-15
40
0.40000000000000091
210
3.2057103924325541e-30
220
9.860761315262814e-32
230
1
0
CIRCLE
5
117
100
AcDbEntity
8
0
100
AcDbCircle
10
-21.719649459999928
20
16.520999470000042
30
0
40
0.40000000000000091
210
3.2057103924325541e-30
220
9.860761315262814e-32
230
1
0
CIRCLE
5
118
100
AcDbEntity
8
0
100
AcDbCircle
10
-21.719649459999928
20
13.980999470000038
30
-2.2204460492503131e-15
40
0.40000000000000091
210
3.2057103924325541e-30
220
9.860761315262814e-32
230
1
0
CIRCLE
5
119
100
AcDbEntity
8
0
100
AcDbCircle
10
-21.719649459999925
20
11.440999470000028
30
0
40
0.40000000000000091
210
3.2057103924325541e-30
220
9.860761315262814e-32
230
1
0
CIRCLE
5
120
100
AcDbEntity
8
0
100
AcDbCircle
10
-21.719649459999925
20
8.9009994700000252
30
0
40
0.40000000000000091
210
3.2057103924325541e-30
220
9.860761315262814e-32
230
1
0
CIRCLE
5
121
100
AcDbEntity
8
0
100
AcDbCircle
10
-24.259649459999931
20
8.9009994700000252
30
0
40
0.40000000000000091
210
3.2057103924325541e-30
220
9.860761315262814e-32
230
1
0
CIRCLE
5
122
100
AcDbEntity
8
0
100
AcDbCircle
10
-21.719649459999925
20
6.3609994700000181
30
-2.2204460492503131e-15
40
0.40000000000000091
210
3.2057103924325541e-30
220
9.860761315262814e-32
230
1
0
CIRCLE
5
123
100
AcDbEntity
8
0
100
AcDbCircle
10
-24.259649459999931
20
6.3609994700000181
30
0
40
0.40000000000000091
210
3.2057103924325541e-30
220
9.860761315262814e-32
230
1
0
CIRCLE
5
124
100
AcDbEntity
8
0
100
AcDbCircle
10
-21.719649459999921
20
3.8209994700000132
30
0
40
0.40000000000000091
210
3.2057103924325541e-30
220
9.860761315262814e-32
230
1
0
CIRCLE
5
125
100
AcDbEntity
8
0
100
AcDbCircle
10
-24.259649459999928
20
3.8209994700000132
30
2.2204460492503131e-15
40
0.40000000000000091
210
3.2057103924325541e-30
220
9.860761315262814e-32
230
1
0
CIRCLE
5
126
100
AcDbEntity
8
0
100
AcDbCircle
10
-24.259649459999928
20
1.2809994700000074
30
0
40
0.40000000000000091
210
3.2057103924325541e-30
220
9.860761315262814e-32
230
1
0
CIRCLE
5
127
100
AcDbEntity
8
0
100
AcDbCircle
10
-21.719649459999921
20
1.280999470000008
30
0
40
0.40000000000000091
210
3.2057103924325541e-30
220
9.860761315262814e-32
230
1
0
CIRCLE
5
128
100
AcDbEntity
8
0
100
AcDbCircle
10
-21.719649459999921
20
-1.2590005299999971
30
0
40
0.40000000000000091
210
3.2057103924325541e-30
220
9.860761315262814e-32
230
1
0
CIRCLE
5
129
100
AcDbEntity
8
0
100
AcDbCircle
10
-24.259649459999928
20
-1.2590005299999976
30
0
40
0.40000000000000091
210
3.2057103924325541e-30
220
9.860761315262814e-32
230
1
0
CIRCLE
5
130
100
AcDbEntity
8
0
100
AcDbCircle
10
-21.719649459999918
20
-3.7990005300000025
30
-2.2204460492503131e-15
40
0.40000000000000091
210
3.2057103924325541e-30
220
9.860761315262814e-32
230
1
0
CIRCLE
5
131
100
AcDbEntity
8
0
100
AcDbCircle
10
-24.25964945999992
20
-3.7990005300000025
30
0
40
0.40000000000000091
210
3.2057103924325541e-30
220
9.860761315262814e-32
230
1
0
CIRCLE
5
132
100
AcDbEntity
8
0
100
AcDbCircle
10
-21.719649459999918
20
-6.3390005300000061
30
0
40
0.40000000000000091
210
3.2057103924325541e-30
220
9.860761315262814e-32
230
1
0
CIRCLE
5
133
100
AcDbEntity
8
0
100
AcDbCircle
10
-24.25964945999992
20
-6.3390005300000061
30
2.2204460492503131e-15
40
0.40000000000000091
210
3.2057103924325541e-30
220
9.860761315262814e-32
230
1
0
CIRCLE
5
134
100
AcDbEntity
8
0
100
AcDbCircle
10
-21.719649459999918
20
-8.8790005300000132
30
0
40
0.40000000000000091
210
3.2057103924325541e-30
220
9.860761315262814e-32
230
1
0
CIRCLE
5
135
100
AcDbEntity
8
0
100
AcDbCircle
10
-24.25964945999992
20
-8.8790005300000132
30
0
40
0.40000000000000091
210
3.2057103924325541e-30
220
9.860761315262814e-32
230
1
0
CIRCLE
5
136
100
AcDbEntity
8
0
100
AcDbCircle
10
-21.719649459999914
20
-11.419000530000016
30
-2.2204460492503131e-15
40
0.40000000000000091
210
3.2057103924325541e-30
220
9.860761315262814e-32
230
1
0
CIRCLE
5
137
100
AcDbEntity
8
0
100
AcDbCircle
10
-24.259649459999917
20
-11.419000530000016
30
0
40
0.40000000000000091
210
3.2057103924325541e-30
220
9.860761315262814e-32
230
1
0
CIRCLE
5
138
100
AcDbEntity
8
0
100
AcDbCircle
10
-24.259649459999917
20
-13.959000530000026
30
2.2204460492503131e-15
40
0.40000000000000091
210
3.2057103924325541e-30
220
9.860761315262814e-32
230
1
0
CIRCLE
5
139
100
AcDbEntity
8
0
100
AcDbCircle
10
-21.719649459999914
20
-16.499000530000028
30
0
40
0.40000000000000091
210
3.2057103924325541e-30
220
9.860761315262814e-32
230
1
0
CIRCLE
5
140
100
AcDbEntity
8
0
100
AcDbCircle
10
-21.719649459999914
20
-19.039000530000035
30
0
40
0.40000000000000091
210
3.2057103924325541e-30
220
9.860761315262814e-32
230
1
0
CIRCLE
5
141
100
AcDbEntity
8
0
100
AcDbCircle
10
-24.259649459999917
20
-19.039000530000035
30
0
40
0.40000000000000091
210
3.2057103924325541e-30
220
9.860761315262814e-32
230
1
0
CIRCLE
5
142
100
AcDbEntity
8
0
100
AcDbCircle
10
-24.259649459999917
20
-16.499000530000028
30
0
40
0.40000000000000091
210
3.2057103924325541e-30
220
9.860761315262814e-32
230
1
0
CIRCLE
5
143
100
AcDbEntity
8
0
100
AcDbCircle
10
-21.719649459999914
20
-13.959000530000026
30
0
40
0.40000000000000091
210
3.2057103924325541e-30
220
9.860761315262814e-32
230
1
0
CIRCLE
5
144
100
AcDbEntity
8
0
100
AcDbCircle
10
-21.719649459999928
20
19.060999470000045
30
0
40
0.40000000000000091
210
3.2057103924325541e-30
220
9.860761315262814e-32
230
1
0
CIRCLE
5
145
100
AcDbEntity
8
0
100
AcDbCircle
10
-24.259649459999935
20
19.060999470000045
30
0
40
0.40000000000000091
210
3.2057103924325541e-30
220
9.860761315262814e-32
230
1
0
CIRCLE
5
146
100
AcDbEntity
8
0
100
AcDbCircle
10
-24.24999999999995
20
36.000000000000071
30
0
40
1.1500000000000024
210
3.2057103924325541e-30
220
4.9303806576314902e-32
230
1
0
CIRCLE
5
147
100
AcDbEntity
8
0
100
AcDbCircle
10
24.250000000000146
20
36.000000000000078
30
0
40
1.1500000000000024
210
3.2057103924325541e-30
220
4.9303806576314902e-32
230
1
0
CIRCLE
5
148
100
AcDbEntity
8
0
100
AcDbCircle
10
-24.24999999999995
20
36.000000000000071
30
0
40
1.9000000000000037
210
3.2057103924325541e-30
220
1.6683063224806537e-45
230
1
6
DASHED
0
CIRCLE
5
149
100
AcDbEntity
8
0
100
AcDbCircle
10
-24.249999999999915
20
-36.000000000000078
30
0
40
1.9000000000000037
210
3.2057103924325541e-30
220
1.6683063224806537e-45
230
1
6
DASHED
0
CIRCLE
5
150
100
AcDbEntity
8
0
100
AcDbCircle
10
-24.249999999999915
20
-36.000000000000078
30
0
40
1.1500000000000024
210
3.2057103924325541e-30
220
4.9303806576314902e-32
230
1
0
CIRCLE
5
151
100
AcDbEntity
8
0
100
AcDbCircle
10
24.250000000000181
20
-36.000000000000071
30
0
40
1.9000000000000037
210
3.2057103924325541e-30
220
1.6683063224806537e-45
230
1
6
DASHED
0
CIRCLE
5
152
100
AcDbEntity
8
0
100
AcDbCircle
10
24.250000000000181
20
-36.000000000000071
30
0
40
1.1500000000000024
210
3.2057103924325541e-30
220
4.9303806576314902e-32
230
1
0
LWPOLYLINE
5
153
100
AcDbEntity
8
0
100
AcDbPolyline
90
8
70
1
43
0.0
10
-27.25
20
-37
10
-27.250000000000007
20
58.999999999999972
42
-0.41421356237309048
10
-25.25
20
60.999999999999986
10
25.25
20
61
42
-0.41421356237309048
10
27.249999999999996
20
59.000000000000014
10
27.25
20
-37
42
-0.4142135623730957
10
25.25
20
-39
10
-25.25
20
-39
42
-0.4142135623730957
0
LINE
5
154
100
AcDbEntity
8
0
100
AcDbLine
10
0
20
-39
30
-2.2204460492504125e-15
11
0
21
60.999999999999986
31
6.3108872417680922e-29
6
DASHED
0
LINE
5
155
100
AcDbEntity
8
0
100
AcDbLine
10
-27.25
20
45.999999999999986
30
-2.2204460492503091e-15
11
27.249999999999993
21
46
31
-2.2204460492503091e-15
6
DASHED
0
LINE
5
156
100
AcDbEntity
8
0
100
AcDbLine
10
-27.25
20
53.499999999999979
30
-2.2204460492503091e-15
11
27.249999999999993
21
53.5
31
-2.2204460492503091e-15
6
DASHED
0
CIRCLE
5
157
100
AcDbEntity
8
0
100
AcDbCircle
10
-24.25
20
57.999999999999986
30
0
40
1.1500000000000035
210
0
220
0
230
1
0
CIRCLE
5
158
100
AcDbEntity
8
0
100
AcDbCircle
10
24.250000000000011
20
57.999999999999986
30
0
40
1.1500000000000039
210
0
220
0
230
1
0
LINE
5
159
100
AcDbEntity
8
0
100
AcDbLine
10
-20.389649459999898
20
-20.589000530000035
30
-1.6038605316472471e-29
11
-25.589649459999908
21
-20.589000530000035
31
5.9164567891575885e-30
6
DASHED
0
ENDSEC
0
SECTION
2
OBJECTS
0
DICTIONARY
5
C
100
AcDbDictionary
3
ACAD_GROUP
350
D
3
ACAD_MLINESTYLE
350
17
0
DICTIONARY
5
D
100
AcDbDictionary
0
DICTIONARY
5
1A
330
C
100
AcDbDictionary
0
DICTIONARY
5
17
100
AcDbDictionary
0
ENDSEC
0
EOF
