M48
; DRILL file KiCad 10.0.5 date 2026-08-15T20:33:47
; FORMAT={-:-/ absolute / metric / decimal}
; #@! TF.CreationDate,2026-08-15T20:33:47-05:00
; #@! TF.GenerationSoftware,Kicad,Pcbnew,10.0.5
; #@! TF.FileFunction,Plated,1,2,PTH
FMAT,2
METRIC
; #@! TA.AperFunction,Plated,PTH,ViaDrill
T1C0.300
; #@! TA.AperFunction,Plated,PTH,ComponentDrill
T2C0.950
; #@! TA.AperFunction,Plated,PTH,ComponentDrill
T3C1.000
%
G90
G05
T1
X7.44Y-82.56
X9.45Y-27.4
X23.79Y-82.56
X36.37Y-82.52
X41.8Y-82.56
T2
X32.75Y-89.5
X35.25Y-89.5
X37.75Y-89.5
X40.25Y-89.5
T3
X2.99Y-19.96
X2.99Y-22.5
X2.99Y-25.04
X2.99Y-27.58
X2.99Y-30.12
X2.99Y-32.66
X2.99Y-35.2
X2.99Y-37.74
X2.99Y-40.28
X2.99Y-42.82
X2.99Y-45.36
X2.99Y-47.9
X2.99Y-50.44
X2.99Y-52.98
X2.99Y-55.52
X2.99Y-58.06
X5.53Y-19.96
X5.53Y-22.5
X5.53Y-25.04
X5.53Y-27.58
X5.53Y-30.12
X5.53Y-32.66
X5.53Y-35.2
X5.53Y-37.74
X5.53Y-40.28
X5.53Y-42.82
X5.53Y-45.36
X5.53Y-47.9
X5.53Y-50.44
X5.53Y-52.98
X5.53Y-55.52
X5.53Y-58.06
M30
